<?xml version="1.0" encoding="utf-8"?>
<svg fill="#000000" width="24px" height="24px" viewBox="0 0 24 24" xmlns="http://www.w3.org/2000/svg" id="notification-alt" class="icon glyph">
  <defs>
    <mask id="stripe-mask">
      <rect x="0" y="0" width="24" height="24" fill="white" />
      <g stroke="black" stroke-width="1.5" transform="rotate(-45 12 12)">
        <line x1="-12" y1="-8" x2="36" y2="-8" />
        <line x1="-12" y1="0" x2="36" y2="0" />
        <line x1="-12" y1="8" x2="36" y2="8" />
        <line x1="-12" y1="16" x2="36" y2="16" />
        <line x1="-12" y1="24" x2="36" y2="24" />
      </g>
    </mask>
  </defs>
  <g mask="url(#stripe-mask)">
    <path d="M18,21H6a3,3,0,0,1-3-3V6A3,3,0,0,1,6,3h6a1,1,0,0,1,0,2H6A1,1,0,0,0,5,6V18a1,1,0,0,0,1,1H18a1,1,0,0,0,1-1V12a1,1,0,0,1,2,0v6A3,3,0,0,1,18,21Z"></path>
    <circle cx="18.5" cy="5.5" r="3.5"></circle>
  </g>
</svg>
