<?xml version="1.0" encoding="UTF-8" standalone="no"?>
<!-- Uploaded to: SVG Repo, www.svgrepo.com, Generator: SVG Repo Mixer Tools -->

<svg
   fill="#000000"
   height="800px"
   width="800px"
   version="1.1"
   id="Icons"
   viewBox="0 0 32 32"
   xml:space="preserve"
   sodipodi:docname="io.github.tobagin.karere-new-message-symbolic.svg"
   inkscape:version="1.4.2 (ebf0e940d0, 2025-05-08)"
   xmlns:inkscape="http://www.inkscape.org/namespaces/inkscape"
   xmlns:sodipodi="http://sodipodi.sourceforge.net/DTD/sodipodi-0.dtd"
   xmlns="http://www.w3.org/2000/svg"
   xmlns:svg="http://www.w3.org/2000/svg"><defs
   id="defs1" /><sodipodi:namedview
   id="namedview1"
   pagecolor="#ffffff"
   bordercolor="#000000"
   borderopacity="0.25"
   inkscape:showpageshadow="2"
   inkscape:pageopacity="0.0"
   inkscape:pagecheckerboard="0"
   inkscape:deskcolor="#d1d1d1"
   inkscape:zoom="0.56568542"
   inkscape:cx="570.98873"
   inkscape:cy="293.44931"
   inkscape:window-width="1268"
   inkscape:window-height="907"
   inkscape:window-x="26"
   inkscape:window-y="23"
   inkscape:window-maximized="0"
   inkscape:current-layer="Icons" />
<path
   d="M17,0C8.7,0,2,6.7,2,15c0,3.4,1.1,6.6,3.2,9.2l-2.1,6.4c-0.1,0.4,0,0.8,0.3,1.1C3.5,31.9,3.8,32,4,32c0.1,0,0.3,0,0.4-0.1  l6.9-3.1C13.1,29.6,15,30,17,30c8.3,0,15-6.7,15-15S25.3,0,17,0z M25.7,20.5c-0.4,1.2-1.9,2.2-3.2,2.4C22.2,23,21.9,23,21.5,23  c-0.8,0-2-0.2-4.1-1.1c-2.4-1-4.8-3.1-6.7-5.8L10.7,16C10.1,15.1,9,13.4,9,11.6c0-2.2,1.1-3.3,1.5-3.8c0.5-0.5,1.2-0.8,2-0.8  c0.2,0,0.3,0,0.5,0c0.7,0,1.2,0.2,1.7,1.2l0.4,0.8c0.3,0.8,0.7,1.7,0.8,1.8c0.3,0.6,0.3,1.1,0,1.6c-0.1,0.3-0.3,0.5-0.5,0.7  c-0.1,0.2-0.2,0.3-0.3,0.3c-0.1,0.1-0.1,0.1-0.2,0.2c0.3,0.5,0.9,1.4,1.7,2.1c1.2,1.1,2.1,1.4,2.6,1.6l0,0c0.2-0.2,0.4-0.6,0.7-0.9  l0.1-0.2c0.5-0.7,1.3-0.9,2.1-0.6c0.4,0.2,2.6,1.2,2.6,1.2l0.2,0.1c0.3,0.2,0.7,0.3,0.9,0.7C26.2,18.5,25.9,19.8,25.7,20.5z"
   id="path1" />
<circle
   cx="28.971472"
   cy="28.912895"
   r="2.7178175"
   id="circle1"
   style="stroke-width:0.77652" /></svg>
