<?xml version="1.0" encoding="UTF-8" standalone="no"?>
<svg
   width="16"
   height="16"
   viewBox="0 0 16 16"
   
   version="1.1"
   id="svg1"
   sodipodi:docname="io.github.tobagin.karere-symbolic.svg"
   inkscape:version="1.4.3 (0d15f75042, 2025-12-25)"
   xmlns:inkscape="http://www.inkscape.org/namespaces/inkscape"
   xmlns:sodipodi="http://sodipodi.sourceforge.net/DTD/sodipodi-0.dtd"
   xmlns="http://www.w3.org/2000/svg"
   xmlns:svg="http://www.w3.org/2000/svg">
  <sodipodi:namedview
     id="namedview1"
     pagecolor="#ffffff"
     bordercolor="#000000"
     borderopacity="0.25"
     inkscape:showpageshadow="2"
     inkscape:pageopacity="0.0"
     inkscape:pagecheckerboard="0"
     inkscape:deskcolor="#d1d1d1"
     inkscape:zoom="44.5"
     inkscape:cx="8"
     inkscape:cy="8"
     inkscape:window-width="2560"
     inkscape:window-height="923"
     inkscape:window-x="0"
     inkscape:window-y="0"
     inkscape:window-maximized="1"
     inkscape:current-layer="svg1" />
  <g
     clip-path="url(#clip0_327_415)"
     id="g1"
     class="ColorScheme-Text" fill="currentColor">
    <path
       d="M9.104 0C12.9998 0.538208 16 3.63381 16 7.68078C16 12.1026 12.4183 15.6873 8 15.6873C6.78411 15.6873 5.63182 15.4153 4.59985 14.9296L0.673584 15.9824C0.301824 16.0821 -0.0383037 15.7417 0.0612793 15.3696L1.05493 11.6574C0.383733 10.4858 0 9.12813 0 7.68078C0 5.53014 0.847622 3.57788 2.22632 2.13943C1.32486 4.52143 1.98491 8.33296 4.33325 9.84929C6.91653 11.5173 8.99991 10.7666 10.3333 9.34888C12.0832 7.48801 12.0833 2.92693 8.25 2.92693C4.91668 2.92694 4.91668 7.01348 6.75 7.01349C7.67316 7.01349 8.08341 6.17948 7.41675 5.01187L7.54639 5.06392C10.2004 6.17741 8.63401 8.71457 6.58325 8.68159C4.83291 8.65337 3.16669 6.42971 4.5 3.42734C4.96671 2.37638 6.96781 0.0576461 9.104 0Z"
       class="ColorScheme-Text" fill="currentColor"
       id="path1"
        />
  </g>
  <defs
     id="defs1">
    <clipPath
       id="clip0_327_415">
      <rect
         width="16"
         height="16"
         id="rect1" />
    </clipPath>
  </defs>
</svg>
