<svg xmlns="http://www.w3.org/2000/svg" width="128" height="128" fill="none" viewBox="0 0 128 128"><g clip-path="url(#a)"><rect width="112" height="120" x="8" y="4" fill="url(#b)" rx="56"/><path fill="#d9d9d9" d="M33 1 17-15 1 1l8 8 8-8 8 8z"/><path stroke="#367e50" stroke-width="2" d="M31.586 19 25 25.586l-8-8-8 8L2.414 19 17 4.414z"/><path fill="#367e50" d="M33 37 17 21 1 37l8 8 8-8 8 8z"/><path stroke="#367e50" stroke-width="2" d="M31.586 55 25 61.586l-8-8-8 8L2.414 55 17 40.414z"/><path fill="#367e50" d="M33 73 17 57 1 73l8 8 8-8 8 8z"/><path stroke="#367e50" stroke-width="2" d="M31.586 91 25 97.586l-8-8-8 8L2.414 91 17 76.414z"/><path fill="#367e50" d="M33 109 17 93 1 109l8 8 8-8 8 8z"/><path fill="#d9d9d9" d="m33 127-16-16-16 16 8 8 8-8 8 8z"/><path fill="#367e50" d="m42-10.5-3 3 9 9-9 9 9 9-9 9 9 9-9 9 9 9-9 9 9 9-9 9 9 9-9 9 9 9-9 9 9 9-6 6-3-3 3-3-9-9 9-9-9-9 9-9-9-9 9-9-9-9 9-9-9-9 9-9-9-9 9-9-9-9 9-9-9-9 6-6z"/><path stroke="#367e50" stroke-width="2" d="M78.586 130 72 123.414l-8 8-8-8L49.414 130 64 144.586z"/><path fill="#367e50" d="m80 124.5-16-16-16 16 8 8 8-8 8 8z"/><path stroke="#367e50" stroke-width="2" d="M78.586 103 72 96.414l-8 8-8-8L49.414 103 64 117.586z"/><path fill="#367e50" d="m80 97.5-16-16-16 16 8 8 8-8 8 8z"/><path stroke="#367e50" stroke-width="2" d="M78.586 76 72 69.414l-8 8-8-8L49.414 76 64 90.586z"/><path fill="#367e50" d="m80 70.5-16-16-16 16 8 8 8-8 8 8z"/><path stroke="#367e50" stroke-width="2" d="M78.586 49 72 42.414l-8 8-8-8L49.414 49 64 63.586z"/><path fill="#367e50" d="m80 43.5-16-16-16 16 8 8 8-8 8 8z"/><path stroke="#367e50" stroke-width="2" d="M78.586 22 72 15.414l-8 8-8-8L49.414 22 64 36.586z"/><path fill="#367e50" d="M80 16.5 64 .5l-16 16 8 8 8-8 8 8zM86-10.5l3 3-9 9 9 9-9 9 9 9-9 9 9 9-9 9 9 9-9 9 9 9-9 9 9 9-9 9 9 9-9 9 6 6 3-3-3-3 9-9-9-9 9-9-9-9 9-9-9-9 9-9-9-9 9-9-9-9 9-9-9-9 9-9-9-9 9-9-6-6z"/><path fill="#d9d9d9" d="m127 127-16 16-16-16 8-8 8 8 8-8z"/><path stroke="#367e50" stroke-width="2" d="M125.586 109 119 102.414l-8 8-8-8L96.414 109 111 123.586z"/><path fill="#367e50" d="m127 91-16 16-16-16 8-8 8 8 8-8z"/><path stroke="#367e50" stroke-width="2" d="M125.586 73 119 66.414l-8 8-8-8L96.414 73 111 87.586z"/><path fill="#367e50" d="m127 55-16 16-16-16 8-8 8 8 8-8z"/><path stroke="#367e50" stroke-width="2" d="M125.586 37 119 30.414l-8 8-8-8L96.414 37 111 51.586z"/><path fill="#367e50" d="m127 19-16 16-16-16 8-8 8 8 8-8z"/><path fill="#d9d9d9" d="m127 1-16 16L95 1l8-8 8 8 8-8z"/></g><g clip-path="url(#c)"><rect width="112" height="112" x="8" y="4" fill="#fff" rx="56"/><rect width="112" height="112" x="8" y="4" fill="#cef9dd" rx="56"/><path fill="#d9d9d9" d="M33 1 17-15 1 1l8 8 8-8 8 8z"/><path stroke="#81d49f" stroke-width="2" d="M31.586 19 25 25.586l-8-8-8 8L2.414 19 17 4.414z"/><path fill="#81d49f" d="M33 37 17 21 1 37l8 8 8-8 8 8z"/><path stroke="#81d49f" stroke-width="2" d="M31.586 55 25 61.586l-8-8-8 8L2.414 55 17 40.414z"/><path fill="#81d49f" d="M33 73 17 57 1 73l8 8 8-8 8 8z"/><path stroke="#81d49f" stroke-width="2" d="M31.586 91 25 97.586l-8-8-8 8L2.414 91 17 76.414z"/><path fill="#81d49f" d="M33 109 17 93 1 109l8 8 8-8 8 8z"/><path fill="#d9d9d9" d="m33 127-16-16-16 16 8 8 8-8 8 8z"/><path fill="#81d49f" d="m42-10.5-3 3 9 9-9 9 9 9-9 9 9 9-9 9 9 9-9 9 9 9-9 9 9 9-9 9 9 9-9 9 9 9-6 6-3-3 3-3-9-9 9-9-9-9 9-9-9-9 9-9-9-9 9-9-9-9 9-9-9-9 9-9-9-9 9-9-9-9 6-6zM80 124.5l-16-16-16 16 8 8 8-8 8 8z"/><path fill="#cef9dd" stroke="#81d49f" stroke-width="2" d="M78.586 103 72 96.414l-8 8-8-8L49.414 103 64 117.586z"/><path fill="#81d49f" d="m80 97.5-16-16-16 16 8 8 8-8 8 8z"/><path fill="#cef9dd" stroke="#81d49f" stroke-width="2" d="M78.586 76 72 69.414l-8 8-8-8L49.414 76 64 90.586z"/><path fill="#81d49f" d="m80 70.5-16-16-16 16 8 8 8-8 8 8z"/><path fill="#cef9dd" stroke="#81d49f" stroke-width="2" d="M78.586 49 72 42.414l-8 8-8-8L49.414 49 64 63.586z"/><path fill="#81d49f" d="m80 43.5-16-16-16 16 8 8 8-8 8 8z"/><path fill="#cef9dd" stroke="#81d49f" stroke-width="2" d="M78.586 22 72 15.414l-8 8-8-8L49.414 22 64 36.586z"/><path fill="#81d49f" d="M80 16.5 64 .5l-16 16 8 8 8-8 8 8zM86-10.5l3 3-9 9 9 9-9 9 9 9-9 9 9 9-9 9 9 9-9 9 9 9-9 9 9 9-9 9 9 9-9 9 6 6 3-3-3-3 9-9-9-9 9-9-9-9 9-9-9-9 9-9-9-9 9-9-9-9 9-9-9-9 9-9-9-9 9-9-6-6z"/><path stroke="#81d49f" stroke-width="2" d="M125.586 109 119 102.414l-8 8-8-8L96.414 109 111 123.586z"/><path fill="#81d49f" d="m127 91-16 16-16-16 8-8 8 8 8-8z"/><path stroke="#81d49f" stroke-width="2" d="M125.586 73 119 66.414l-8 8-8-8L96.414 73 111 87.586z"/><path fill="#81d49f" d="m127 55-16 16-16-16 8-8 8 8 8-8z"/><path stroke="#81d49f" stroke-width="2" d="M125.586 37 119 30.414l-8 8-8-8L96.414 37 111 51.586z"/><path fill="#81d49f" d="m127 19-16 16-16-16 8-8 8 8 8-8z"/><path fill="#d9d9d9" d="m127 1-16 16L95 1l8-8 8 8 8-8z"/></g><g filter="url(#d)"><path fill="#38a45e" d="M34.695 91.18c-1.488.398-2.849-.963-2.45-2.45L38.77 64.38l20.276 20.276z"/></g><g filter="url(#e)"><circle cx="64" cy="58" r="32" fill="#38a45e"/></g><path fill="#1a6d37" d="M59 55.333c1.718 0 2.992-.721 3.595-1.963q.317-.65.375-1.475c.087-1.266-.309-2.821-1.303-4.562 11.333 4.334 5 14.8-3.334 14.667-7.001-.112-13.666-9-8.333-21 1.112-2.502 4.402-7.157 8.687-10.561 2.908-2.31 6.275-4.044 9.73-4.137A32 32 0 0 0 64 26c-9.075 0-17.268 3.778-23.092 9.846-3.609 9.52-.97 24.759 8.425 30.82 10.334 6.667 18.667 3.667 24-2C80.333 57.23 80.333 39 65 39c-8.79 0-11.785 7.098-10.705 11.936.559 2.5 2.206 4.397 4.705 4.397"/><path fill="#1a6d37" d="M58.687 30.439a32.293 32.293 0 0 1 9.729-.137v-4c-3.454.093-6.82 1.827-9.729 4.137"/><path fill="#1a6d37" fill-rule="evenodd" d="M54.295 50.936C55.127 46.93 58.46 43 65 43c15.333 0 15.333 18.23 8.333 25.667-5.333 5.666-13.666 8.666-24 2-9.395-6.062-12.034-21.3-8.425-30.82A31.93 31.93 0 0 1 64 30c1.498 0 2.973.103 4.416.302C59.871 30.532 51.866 40.8 50 45c-5.333 12 1.332 20.888 8.333 21 7.993.128 14.145-9.495 4.637-14.105q-.609-.295-1.303-.562c.407.713.713 1.394.928 2.037-.603 1.242-1.877 1.963-3.595 1.963-2.499 0-4.146-1.896-4.705-4.397" clip-rule="evenodd"/><path fill="#1a6d37" d="m62.982 55.52-.012-3.625a4 4 0 0 1-.375 1.475c.258.776.383 1.497.386 2.15"/><path fill="#1a6d37" d="M62.595 53.37c-.603 1.242-1.877 1.963-3.595 1.963-2.499 0-4.146-1.896-4.705-4.397-.864 4.159.97 8.397 4.705 8.397 2.449 0 3.995-1.465 3.981-3.814-.003-.652-.128-1.373-.386-2.15"/><path fill="#cef9dd" d="M59 55.333c3.693 0 5.333-3.333 2.667-8 11.333 4.334 5 14.8-3.334 14.667-7.001-.112-13.666-9-8.333-21 1.867-4.2 9.871-14.468 18.416-14.698A32 32 0 0 0 64 26c-9.075 0-17.268 3.778-23.092 9.846-3.609 9.52-.97 24.759 8.425 30.82 10.334 6.667 18.667 3.667 24-2C80.333 57.23 80.333 39 65 39c-13.333 0-13.333 16.333-6 16.333"/><defs><clipPath id="a"><rect width="112" height="120" x="8" y="4" fill="#fff" rx="56"/></clipPath><clipPath id="c"><rect width="112" height="112" x="8" y="4" fill="#fff" rx="56"/></clipPath><filter id="d" width="26.871" height="26.871" x="32.175" y="64.379" color-interpolation-filters="sRGB" filterUnits="userSpaceOnUse"><feFlood flood-opacity="0" result="BackgroundImageFix"/><feBlend in="SourceGraphic" in2="BackgroundImageFix" result="shape"/><feColorMatrix in="SourceAlpha" result="hardAlpha" values="0 0 0 0 0 0 0 0 0 0 0 0 0 0 0 0 0 0 127 0"/><feOffset dy="4"/><feComposite in2="hardAlpha" k2="-1" k3="1" operator="arithmetic"/><feColorMatrix values="0 0 0 0 0.101961 0 0 0 0 0.427451 0 0 0 0 0.215686 0 0 0 1 0"/><feBlend in2="shape" result="effect1_innerShadow_307_51"/></filter><filter id="e" width="64" height="64" x="32" y="26" color-interpolation-filters="sRGB" filterUnits="userSpaceOnUse"><feFlood flood-opacity="0" result="BackgroundImageFix"/><feBlend in="SourceGraphic" in2="BackgroundImageFix" result="shape"/><feColorMatrix in="SourceAlpha" result="hardAlpha" values="0 0 0 0 0 0 0 0 0 0 0 0 0 0 0 0 0 0 127 0"/><feOffset dy="4"/><feComposite in2="hardAlpha" k2="-1" k3="1" operator="arithmetic"/><feColorMatrix values="0 0 0 0 0.101961 0 0 0 0 0.427451 0 0 0 0 0.215686 0 0 0 1 0"/><feBlend in2="shape" result="effect1_innerShadow_307_51"/></filter><linearGradient id="b" x1="8" x2="120" y1="124" y2="124" gradientUnits="userSpaceOnUse"><stop stop-color="#b5ffcf"/><stop offset=".2" stop-color="#77d196"/><stop offset=".4" stop-color="#38a45e"/><stop offset=".6" stop-color="#38a45e"/><stop offset=".8" stop-color="#77d297"/><stop offset="1" stop-color="#b5ffcf"/></linearGradient></defs></svg>